<svg width="168" height="201" viewBox="0 0 168 201" fill="none" xmlns="http://www.w3.org/2000/svg">
<path d="M121.992 80.1516C119.071 82.8678 115.731 85.0396 112.323 87.081C109.375 88.8446 107.787 90.6024 106.125 93.5001C105.604 94.4073 104.969 95.3543 104.73 96.392C104.186 98.7566 105.371 99.0572 107.367 98.6886C111.535 97.9174 115.374 96.0121 118.998 93.8687C122.479 91.8046 126.12 89.6668 129.171 86.9959C131.467 84.9829 132.941 82.5616 134.427 79.9475C135.028 78.8871 135.675 77.8324 136.043 76.6642C136.548 75.0708 136.372 73.6021 136.043 72.1051C137.155 70.8519 137.914 69.1678 138.686 67.7501C140.183 64.9943 140.585 61.677 140.064 58.5922C139.219 53.6021 136.083 49.3265 133.939 44.8468C132.873 42.624 131.892 40.2253 131.62 37.753C131.246 34.4017 132.664 31.402 134.149 28.4873C133.662 29.4456 132.579 31.0391 131.955 32.2582C129.806 36.4714 128.603 40.2197 130.095 44.8865C131.399 48.958 133.798 52.5304 135.641 56.3524C137.104 59.3918 138.141 62.4935 137.971 65.8959C137.914 67.0527 137.552 68.113 137.302 69.1961C136.746 69.576 136.168 69.7745 135.51 69.9163C135.193 69.9843 133.174 73.5227 133.248 73.8346C133.707 75.8023 134.427 77.7246 134.007 79.7717C133.928 80.0439 133.854 80.3104 133.775 80.5826C133.735 80.6846 133.701 80.7697 133.667 80.8491C133.202 81.3821 132.408 82.1703 132.335 82.2384C129.766 84.7731 126.551 86.6557 123.511 88.561C120.302 90.5741 116.99 92.5134 113.389 93.7609C111.853 94.2939 109.987 94.9857 108.331 94.9687C107.719 94.9687 107.367 94.9857 107.021 94.4527C106.885 94.0558 106.834 93.6475 106.874 93.2279C106.885 93.1712 106.897 93.1315 106.908 93.0861C107.174 92.8593 107.447 92.6438 107.736 92.4453C108.479 91.9123 109.273 91.4643 110.055 90.9937C111.518 90.1204 112.97 89.2301 114.382 88.2718C117.381 86.2304 120.228 83.8942 122.553 81.0929C125.757 77.2313 128.689 72.1732 129.857 67.2852C129.522 68.6801 127.934 69.7859 127.594 71.2035C127.345 72.2412 127.055 73.2619 126.67 74.2599C126.539 74.6001 126.398 74.9347 126.245 75.2636C126.125 75.4394 125.978 75.6549 125.808 75.9157C124.674 77.4468 123.381 78.8587 121.986 80.1573L121.992 80.1516ZM134.013 80.3728C134.013 80.3728 133.99 80.4521 133.934 80.5372C133.962 80.4805 133.985 80.4351 134.013 80.3728Z" fill="#DAC5A7"/>
<path d="M143.755 73.2282C143.744 75.1789 143.568 77.1296 143.103 79.0292C142.916 79.789 142.689 80.5432 142.423 81.2804C142.252 81.7511 142.06 82.216 141.85 82.6754C141.776 82.7888 141.697 82.9022 141.606 83.0326C140.738 84.2631 140.205 85.7261 139.344 86.9509C141.056 84.5183 142.644 81.8645 143.914 79.171C146.125 74.5041 146.284 69.3496 145.723 64.2915C144.549 53.6876 140.631 43.4919 145.303 33.1318C144.685 34.4984 143.659 35.6779 143.041 37.0502C139.491 44.9152 140.767 52.9504 142.321 61.116C143.08 65.108 143.772 69.1398 143.744 73.2226L143.755 73.2282Z" fill="#DAC5A7"/>
<path d="M152.204 35.6444C151.637 36.5007 151.155 37.4306 150.651 38.3209C147.515 43.8157 147.538 49.5316 147.872 55.7125C148.28 63.2033 148.496 70.6827 148.978 78.1678C149.188 81.4794 149.103 84.8364 148.11 88.0346C148.059 88.2047 147.73 88.9021 147.623 89.2367C147.555 89.4352 147.458 89.6166 147.316 89.7697C147.027 90.093 146.721 90.3992 146.432 90.6884C145.326 91.7828 144.118 92.8091 142.814 93.6484C140.404 95.2021 136.026 96.9203 133.39 94.9186C130.724 92.8999 132.329 87.7454 133.475 85.3921C133.004 86.3617 131.881 87.9325 131.28 89.163C130.078 91.6353 128.394 96.7672 131.127 98.8369C133.996 101.009 138.708 98.905 141.198 97.1301C145.332 94.1814 148.649 89.3161 150.259 84.4848C151.376 81.1278 151.45 77.6178 151.235 74.1304C150.957 69.662 150.753 65.1879 150.6 60.7082C150.458 56.5687 150.112 52.4406 149.976 48.3011C149.851 44.4167 149.845 39.8576 151.836 36.3703C151.875 36.2965 152.686 34.9356 152.216 35.6501L152.204 35.6444Z" fill="#DAC5A7"/>
<path d="M118.839 79.3468C119.865 79.3468 120.699 78.5133 120.699 77.4869C120.699 76.4605 119.865 75.627 118.839 75.627C117.812 75.627 116.979 76.4605 116.979 77.4869C116.979 78.5133 117.812 79.3468 118.839 79.3468Z" fill="#DAC5A7"/>
<path d="M118.839 74.9464C119.865 74.9464 120.699 74.1129 120.699 73.0865C120.699 72.0601 119.865 71.2266 118.839 71.2266C117.812 71.2266 116.979 72.0601 116.979 73.0865C116.979 74.1129 117.812 74.9464 118.839 74.9464Z" fill="#DAC5A7"/>
<path d="M125.66 28.657C119.962 35.7622 113.894 40.724 105.371 44.0979C97.733 47.126 88.7566 48.158 81.6514 52.3259C75.9185 55.6942 72.6692 61.5178 69.4994 67.1146C68.0761 69.621 66.2332 72.4109 66.0687 75.3539C65.8533 79.3347 69.1025 82.1983 72.8053 79.8847C74.7333 78.6826 74.7447 74.4467 76.6273 73.2672C70.3103 77.2139 68.473 68.1977 71.7166 64.2737C76.1963 58.8697 82.0426 56.851 88.5978 55.0024C94.7106 53.2785 100.903 51.3505 106.59 48.4812C109.573 46.9786 112.17 45.147 114.541 43.0715C109.828 48.555 104.833 53.7945 99.7517 59.1078C91.6088 67.6193 84.5433 77.3046 78.4418 87.3642C73.4291 95.6318 67.8039 105 63.9876 114.793C62.6097 114.9 61.2204 114.957 59.8028 115.025C55.1302 115.252 51.1098 116.233 47.1064 118.705C43.2051 121.121 39.8198 124.279 35.9128 126.689C32.5275 128.787 27.1518 131.441 23.086 129.757C20.8291 128.816 19.9219 126.644 19.9332 124.415C26.1651 119.879 35.8447 120.486 42.8195 117.719C51.1382 114.418 58.1867 108.714 63.3582 101.438C64.8326 99.3687 65.7172 96.8793 67.1802 94.8209C59.7007 105.34 48.8076 111.679 36.185 113.874C30.6959 114.832 24.4243 115.654 20.9652 120.559C19.0826 123.225 16.0772 127.427 16.0319 130.852C15.9411 138.235 24.2201 137.18 28.921 135.042C35.1019 132.235 39.695 126.905 45.7739 123.922C50.8377 121.427 56.3778 122.017 61.7364 121.376C59.0543 130.647 58.4078 140.168 61.7705 149.411C65.6208 159.987 74.7446 166.871 85.7795 168.47C96.9221 170.086 107.832 166.145 116.758 159.618C125.224 153.437 131.24 145.533 136.332 136.511C141.13 128.005 142.995 115.677 133.372 109.644C125.615 104.784 111.473 105.238 105.893 113.273C104.044 115.938 101.702 119.363 100.874 122.544C100.614 123.554 100.54 124.676 100.665 125.782C97.9485 126.548 95.6292 128.538 92.6239 127.863C89.0344 127.058 88.0477 124.019 88.2349 120.576C88.3993 119.578 88.5581 118.552 88.6602 117.565C89.2726 114.679 90.418 111.884 91.297 110.194C91.382 110.029 91.3764 110.029 91.2799 110.182C89.42 113.182 87.4977 116.239 85.9496 119.414C84.2258 122.964 84.583 126.842 83.8572 130.54C82.3489 131.969 80.5286 133.063 78.663 132.791C75.8618 132.388 74.4781 129.156 74.3364 126.661C74.1663 123.673 75.2493 120.633 76.4288 117.94C76.4288 117.94 77.5856 115.791 77.7614 115.348C78.6687 113.953 79.5589 112.564 80.4605 111.169C82.5303 107.977 84.6 104.778 86.6641 101.586C90.35 96.5391 93.6842 91.2258 96.8711 85.8274C96.8824 85.8047 96.8995 85.7821 96.9108 85.7594C100.013 80.9734 103.766 75.8983 105.677 70.4659C105.246 71.5547 104.317 72.944 103.63 73.9647C103.353 74.39 103.075 74.8039 102.848 75.2122C101.697 77.2422 100.534 79.2666 99.3435 81.274C99.145 81.5745 98.9522 81.8807 98.7537 82.1869C96.769 85.2434 94.79 88.3055 92.811 91.3619C92.0398 92.5584 91.2629 93.7492 90.4861 94.94C88.2235 98.0758 85.8135 101.11 83.2108 103.985C80.3358 107.16 77.2227 110.267 73.4348 112.343C70.8887 113.738 68.2746 114.333 65.5697 114.639C68.6658 103.82 74.5689 93.4543 80.5229 84.8861C92.9074 67.0523 109.698 53.1821 121.895 35.1782L121.912 35.1611C121.912 35.1611 121.912 35.1498 121.924 35.1385C121.946 35.1101 121.969 35.0761 121.992 35.0421C122.468 34.3446 122.876 33.5847 123.267 32.8079C124.067 31.4186 124.867 30.035 125.66 28.6514M136.134 134.174C135.901 135.326 135.368 136.465 135.17 137.605C135.102 138.025 134.733 138.688 134.586 138.966C131.966 142.504 129.046 145.765 125.768 148.736C119.531 154.413 112.125 159.017 103.891 161.087C87.2085 165.272 69.5618 157.395 64.7702 140.231C63.0123 133.936 62.9783 127.432 64.1011 120.996C65.1501 120.781 66.1935 120.486 67.2142 120.089C73.2193 117.747 77.8067 112.587 81.8442 107.755C82.3999 107.103 82.9329 106.434 83.4716 105.765C82.8082 106.791 82.1334 107.829 81.4699 108.861C77.5969 114.906 73.0718 121.529 71.1552 128.51C70.2252 131.867 69.851 137.503 73.9224 139.153C77.5346 140.611 81.1127 136.386 82.9272 133.562C83.0236 133.409 83.12 133.267 83.1994 133.125C83.7608 132.212 84.3392 131.294 84.9006 130.358C85.5584 132.887 87.2085 134.804 90.5881 134.588C93.2079 134.418 95.323 132.598 97.9031 132.139C101.85 131.43 105.848 132.683 109.584 133.823C109.704 133.863 113.559 127.375 113.406 127.205C111.263 124.801 107.708 125.765 105.746 122.822C104.611 121.115 104.277 119.119 104.521 117.169C108.972 113.483 115.856 112.831 121.322 113.522C129.25 114.526 135.584 119.51 136.474 127.789C136.701 129.922 136.548 132.071 136.128 134.163L136.134 134.174Z" fill="#DAC5A7"/>
<path d="M46.7606 107.24C48.3202 107.24 49.5845 105.975 49.5845 104.416C49.5845 102.856 48.3202 101.592 46.7606 101.592C45.201 101.592 43.9366 102.856 43.9366 104.416C43.9366 105.975 45.201 107.24 46.7606 107.24Z" fill="#DAC5A7"/>
<path d="M46.7606 99.8109C48.3202 99.8109 49.5845 98.5466 49.5845 96.987C49.5845 95.4274 48.3202 94.1631 46.7606 94.1631C45.201 94.1631 43.9366 95.4274 43.9366 96.987C43.9366 98.5466 45.201 99.8109 46.7606 99.8109Z" fill="#DAC5A7"/>
<path d="M87.872 152.996C89.4316 152.996 90.6959 151.731 90.6959 150.172C90.6959 148.612 89.4316 147.348 87.872 147.348C86.3124 147.348 85.0481 148.612 85.0481 150.172C85.0481 151.731 86.3124 152.996 87.872 152.996Z" fill="#DAC5A7"/>
<path d="M87.872 145.573C89.4316 145.573 90.6959 144.308 90.6959 142.749C90.6959 141.189 89.4316 139.925 87.872 139.925C86.3124 139.925 85.0481 141.189 85.0481 142.749C85.0481 144.308 86.3124 145.573 87.872 145.573Z" fill="#DAC5A7"/>
<path d="M123.857 128.896C125.417 128.896 126.681 127.632 126.681 126.072C126.681 124.512 125.417 123.248 123.857 123.248C122.298 123.248 121.033 124.512 121.033 126.072C121.033 127.632 122.298 128.896 123.857 128.896Z" fill="#DAC5A7"/>
<path d="M16.0319 194.702H16.2927L17.5913 198.167L18.8955 194.702H19.1563V199.29H18.8955V195.411L17.7217 198.586H17.4665L16.2927 195.411V199.29H16.0319V194.702Z" fill="#DAC5A7"/>
<path d="M25.5357 194.702H25.7909L27.0781 199.261L26.8229 199.329L26.426 197.946H24.8892L24.4923 199.329L24.2371 199.261L25.5243 194.702H25.5357ZM25.6661 195.218L24.963 197.685H26.3579L25.6661 195.218Z" fill="#DAC5A7"/>
<path d="M32.1645 194.702H32.4253V199.29H32.1645V194.702Z" fill="#DAC5A7"/>
<path d="M39.0145 194.577C39.264 194.577 39.5192 194.679 39.7687 194.878L39.6042 195.088C39.3434 194.872 39.0882 194.798 38.8501 194.866C38.6346 194.917 38.4645 195.065 38.3511 195.303C38.232 195.535 38.2206 195.774 38.3057 196.012C38.4078 196.284 38.6289 196.488 38.9748 196.619C39.5532 196.845 39.9275 197.174 40.0976 197.6C40.2563 197.985 40.228 198.365 40.0125 198.734C39.8764 198.96 39.6893 199.136 39.4455 199.255C39.2016 199.374 38.9181 199.414 38.5835 199.38C38.2547 199.34 37.9258 199.204 37.6082 198.972L37.767 198.762C38.0619 198.972 38.3454 199.097 38.6289 199.131C38.9068 199.165 39.1449 199.131 39.3377 199.034C39.5249 198.932 39.678 198.79 39.7914 198.603C39.9672 198.308 39.9898 198.008 39.8594 197.702C39.7177 197.35 39.4001 197.072 38.8954 196.868C38.4758 196.709 38.1979 196.454 38.0732 196.103C37.9541 195.796 37.9711 195.496 38.1186 195.184C38.266 194.878 38.4928 194.685 38.7877 194.611C38.8671 194.589 38.9465 194.577 39.0259 194.577H39.0145Z" fill="#DAC5A7"/>
<path d="M45.9099 195.286C46.3352 194.815 46.8513 194.577 47.458 194.577C48.0648 194.577 48.5808 194.815 49.0061 195.286C49.4314 195.762 49.6468 196.329 49.6468 196.987C49.6468 197.645 49.4314 198.218 49.0061 198.688C48.5808 199.159 48.0648 199.397 47.458 199.397C46.8513 199.397 46.3352 199.159 45.9099 198.688C45.4846 198.212 45.2692 197.645 45.2692 196.987C45.2692 196.329 45.4846 195.757 45.9099 195.286ZM48.8189 195.467C48.439 195.048 47.991 194.838 47.458 194.838C46.925 194.838 46.477 195.048 46.0971 195.467C45.7228 195.887 45.53 196.392 45.53 196.987C45.53 197.583 45.7172 198.093 46.0971 198.507C46.477 198.926 46.925 199.136 47.458 199.136C47.991 199.136 48.439 198.926 48.8189 198.507C49.1989 198.087 49.386 197.583 49.386 196.987C49.386 196.392 49.1989 195.881 48.8189 195.467Z" fill="#DAC5A7"/>
<path d="M54.807 194.702H55.0678L57.217 198.791V194.702H57.4778V199.29H57.217L55.0678 195.201V199.29H54.807V194.702Z" fill="#DAC5A7"/>
<path d="M69.1478 194.702H69.4086V199.029H71.7846V199.29H69.1421V194.702H69.1478Z" fill="#DAC5A7"/>
<path d="M76.8654 194.702H78.9351V194.963H77.1262V196.811H77.9881V197.072H77.1262V199.017H78.8557V199.278H76.8654V194.69V194.702Z" fill="#DAC5A7"/>
<path d="M84.05 194.702H84.3108V199.029H86.6868V199.29H84.0443V194.702H84.05Z" fill="#DAC5A7"/>
<path d="M92.8847 194.702H93.1399L94.4271 199.261L94.1719 199.329L93.775 197.946H92.2383L91.8413 199.329L91.5862 199.261L92.8734 194.702H92.8847ZM93.0152 195.218L92.312 197.685H93.707L93.0152 195.218Z" fill="#DAC5A7"/>
<path d="M105.961 194.702H106.222V199.063C106.222 199.312 106.159 199.533 106.035 199.721C105.887 199.942 105.694 200.055 105.456 200.055V199.794C105.604 199.794 105.723 199.721 105.814 199.579C105.91 199.437 105.955 199.267 105.955 199.068V194.708L105.961 194.702Z" fill="#DAC5A7"/>
<path d="M112.596 194.702H112.851L114.138 199.261L113.883 199.329L113.486 197.946H111.949L111.552 199.329L111.297 199.261L112.584 194.702H112.596ZM112.726 195.218L112.023 197.685H113.418L112.726 195.218Z" fill="#DAC5A7"/>
<path d="M119.23 194.702H119.491L120.79 198.167L122.094 194.702H122.355V199.29H122.094V195.411L120.92 198.586H120.665L119.491 195.411V199.29H119.23V194.702Z" fill="#DAC5A7"/>
<path d="M127.611 194.702H129.681V194.963H127.872V196.811H128.734V197.072H127.872V199.017H129.601V199.278H127.611V194.69V194.702Z" fill="#DAC5A7"/>
<path d="M134.796 194.702H136.865V194.963H135.057V196.811H135.918V197.072H135.057V199.017H136.786V199.278H134.796V194.69V194.702Z" fill="#DAC5A7"/>
<path d="M141.98 194.702H142.241V199.029H144.617V199.29H141.975V194.702H141.98Z" fill="#DAC5A7"/>
<path d="M150.809 194.702H151.064L152.352 199.261L152.097 199.329L151.7 197.946H150.163L149.766 199.329L149.511 199.261L150.798 194.702H150.809ZM150.94 195.218L150.237 197.685H151.632L150.94 195.218Z" fill="#DAC5A7"/>
<path d="M167.815 197.266H159.355V196.648H167.197V13.5062C167.197 6.42935 161.442 0.673751 154.365 0.673751H14.0245C6.94766 0.673751 1.19206 6.42935 1.19206 13.5062V196.648H9.03441V197.266H0.573975V13.5062C0.573975 6.08912 6.60743 0.0556641 14.0245 0.0556641H154.365C161.782 0.0556641 167.815 6.08912 167.815 13.5062V197.266Z" fill="#DAC5A7"/>
</svg>
